<svg xmlns="http://www.w3.org/2000/svg" viewBox="0 0 200 200" width="200" height="200">
  <!-- Transparent background (menu-bar tray glyph) -->

  <!-- Main golden circle ring -->
  <circle cx="100" cy="100" r="60" fill="none" stroke="#E4A44C" stroke-width="8"/>

  <!-- Crosshair lines -->
  <g stroke="#E4A44C" stroke-width="5" stroke-linecap="butt">
    <line x1="100" y1="15" x2="100" y2="36"/>
    <line x1="100" y1="44" x2="100" y2="100"/>
    <line x1="100" y1="100" x2="100" y2="156"/>
    <line x1="100" y1="164" x2="100" y2="185"/>
    <line x1="15" y1="100" x2="36" y2="100"/>
    <line x1="44" y1="100" x2="100" y2="100"/>
    <line x1="100" y1="100" x2="156" y2="100"/>
    <line x1="164" y1="100" x2="185" y2="100"/>
  </g>

  <!-- Small circle at top -->
  <circle cx="100" cy="30" r="7" fill="#E4A44C"/>

  <!-- Arc of dots inside upper half -->
  <g fill="#E4A44C">
    <circle cx="100" cy="55" r="3.2"/>
    <circle cx="88.4" cy="56.2" r="3.2"/>
    <circle cx="111.6" cy="56.2" r="3.2"/>
    <circle cx="77.5" cy="61" r="3.2"/>
    <circle cx="122.5" cy="61" r="3.2"/>
    <circle cx="68.2" cy="68.2" r="3"/>
    <circle cx="131.8" cy="68.2" r="3"/>
    <circle cx="61.2" cy="76.2" r="2.8"/>
    <circle cx="138.8" cy="76.2" r="2.8"/>
    <circle cx="56.6" cy="84.6" r="2.6"/>
    <circle cx="143.4" cy="84.6" r="2.6"/>
  </g>
</svg>
